<?xml version="1.0" standalone="no"?>
<!DOCTYPE svg PUBLIC "-//W3C//DTD SVG 20010904//EN"
 "http://www.w3.org/TR/2001/REC-SVG-20010904/DTD/svg10.dtd">
<svg version="1.0" xmlns="http://www.w3.org/2000/svg"
 width="200.000000pt" height="200.000000pt" viewBox="0 0 200.000000 200.000000"
 preserveAspectRatio="xMidYMid meet">
<metadata>
Created by potrace 1.11, written by Peter Selinger 2001-2013
</metadata>
<g transform="translate(0.000000,200.000000) scale(0.100000,-0.100000)"
fill="#000000" stroke="none">
<path d="M925 1814 c-44 -23 -713 -692 -736 -736 -24 -47 -24 -109 0 -156 25
-48 707 -727 744 -741 36 -14 98 -14 134 0 36 13 728 703 748 745 21 44 19
107 -4 152 -24 46 -694 714 -738 736 -40 20 -109 20 -148 0z m228 -424 c14
-12 24 -27 21 -34 -6 -15 31 -46 54 -46 18 0 91 -57 130 -101 55 -63 66 -126
33 -188 l-18 -34 -12 48 c-7 28 -24 60 -42 77 -28 29 -33 30 -82 24 -58 -8
-92 -33 -113 -83 -8 -17 -18 -34 -23 -37 -5 -4 -26 13 -46 36 l-36 43 33 13
c56 23 88 61 88 103 0 41 -27 70 -58 63 -9 -3 -30 6 -46 19 l-29 24 43 46 c47
52 65 57 103 27z m-321 -41 c24 -13 48 -67 48 -108 0 -34 44 -91 198 -259 57
-61 105 -105 121 -109 43 -10 98 -41 105 -58 10 -28 7 -70 -8 -90 -12 -17 -15
-15 -34 28 -23 52 -41 58 -92 32 -34 -18 -37 -33 -14 -76 19 -38 13 -45 -26
-29 -46 19 -64 51 -57 107 l5 46 -120 141 c-148 174 -161 186 -200 186 -47 0
-95 28 -113 66 -24 50 -10 59 39 25 41 -28 44 -29 74 -14 17 8 34 25 38 36 7
21 -1 31 -57 69 l-24 17 48 0 c27 1 57 -4 69 -10z m102 -404 l38 -46 -107
-114 c-59 -63 -114 -115 -123 -115 -15 0 -80 44 -95 64 -5 8 153 171 248 256
1 0 18 -20 39 -45z"/>
</g>
</svg>
